%TF.GenerationSoftware,KiCad,Pcbnew,(6.0.9)*%
%TF.CreationDate,2023-04-09T12:51:12-04:00*%
%TF.ProjectId,MainPad,4d61696e-5061-4642-9e6b-696361645f70,rev?*%
%TF.SameCoordinates,Original*%
%TF.FileFunction,Copper,L1,Top*%
%TF.FilePolarity,Positive*%
%FSLAX46Y46*%
G04 Gerber Fmt 4.6, Leading zero omitted, Abs format (unit mm)*
G04 Created by KiCad (PCBNEW (6.0.9)) date 2023-04-09 12:51:12*
%MOMM*%
%LPD*%
G01*
G04 APERTURE LIST*
%TA.AperFunction,ComponentPad*%
%ADD10C,1.008000*%
%TD*%
%TA.AperFunction,ComponentPad*%
%ADD11O,2.416000X1.208000*%
%TD*%
%TA.AperFunction,ComponentPad*%
%ADD12R,1.600000X1.600000*%
%TD*%
%TA.AperFunction,ComponentPad*%
%ADD13O,1.600000X1.600000*%
%TD*%
%TA.AperFunction,ComponentPad*%
%ADD14C,2.200000*%
%TD*%
%TA.AperFunction,ComponentPad*%
%ADD15O,1.600000X2.000000*%
%TD*%
%TA.AperFunction,ComponentPad*%
%ADD16R,2.000000X2.000000*%
%TD*%
%TA.AperFunction,ComponentPad*%
%ADD17C,2.000000*%
%TD*%
%TA.AperFunction,ComponentPad*%
%ADD18R,2.000000X3.200000*%
%TD*%
%TA.AperFunction,ComponentPad*%
%ADD19C,1.600000*%
%TD*%
%TA.AperFunction,ViaPad*%
%ADD20C,0.800000*%
%TD*%
%TA.AperFunction,Conductor*%
%ADD21C,0.250000*%
%TD*%
G04 APERTURE END LIST*
D10*
%TO.P,PoweSwitch1,1,A*%
%TO.N,Net-(PoweSwitch1-Pad1)*%
X120530000Y-68070000D03*
%TO.P,PoweSwitch1,2,B*%
%TO.N,Net-(PoweSwitch1-Pad2)*%
X120530000Y-71070000D03*
%TO.P,PoweSwitch1,3,C*%
%TO.N,unconnected-(PoweSwitch1-Pad3)*%
X120530000Y-74070000D03*
D11*
%TO.P,PoweSwitch1,P$4*%
%TO.N,N/C*%
X120530000Y-64770000D03*
%TO.P,PoweSwitch1,P$5*%
X120530000Y-77270000D03*
%TD*%
D12*
%TO.P,U9,1,K*%
%TO.N,Net-(SW8-Pad1)*%
X161290000Y-116840000D03*
D13*
%TO.P,U9,2,A*%
%TO.N,/Row4*%
X161290000Y-124460000D03*
%TD*%
D12*
%TO.P,U8,1,K*%
%TO.N,Net-(SW7-Pad1)*%
X142240000Y-116840000D03*
D13*
%TO.P,U8,2,A*%
%TO.N,/Row3*%
X142240000Y-124460000D03*
%TD*%
D12*
%TO.P,U7,1,K*%
%TO.N,Net-(SW6-Pad1)*%
X161290000Y-97790000D03*
D13*
%TO.P,U7,2,A*%
%TO.N,/Row2*%
X161290000Y-105410000D03*
%TD*%
D12*
%TO.P,U6,1,K*%
%TO.N,Net-(SW5-Pad1)*%
X142240000Y-97790000D03*
D13*
%TO.P,U6,2,A*%
%TO.N,/Row1*%
X142240000Y-105410000D03*
%TD*%
D12*
%TO.P,U5,1,K*%
%TO.N,Net-(SW4-Pad1)*%
X161290000Y-78740000D03*
D13*
%TO.P,U5,2,A*%
%TO.N,/Row4*%
X161290000Y-86360000D03*
%TD*%
D12*
%TO.P,U4,1,K*%
%TO.N,Net-(SW3-Pad1)*%
X142240000Y-78740000D03*
D13*
%TO.P,U4,2,A*%
%TO.N,/Row3*%
X142240000Y-86360000D03*
%TD*%
D12*
%TO.P,U3,1,K*%
%TO.N,Net-(SW2-Pad1)*%
X161290000Y-59690000D03*
D13*
%TO.P,U3,2,A*%
%TO.N,/Row2*%
X161290000Y-67310000D03*
%TD*%
D12*
%TO.P,U2,1,K*%
%TO.N,Net-(SW1-Pad1)*%
X142240000Y-57150000D03*
D13*
%TO.P,U2,2,A*%
%TO.N,/Row1*%
X142240000Y-64770000D03*
%TD*%
D14*
%TO.P,SW8,1,1*%
%TO.N,Net-(SW8-Pad1)*%
X154940000Y-116840000D03*
%TO.P,SW8,2,2*%
%TO.N,/Column2*%
X148590000Y-119380000D03*
%TD*%
%TO.P,SW7,1,1*%
%TO.N,Net-(SW7-Pad1)*%
X135890000Y-116840000D03*
%TO.P,SW7,2,2*%
%TO.N,/Column2*%
X129540000Y-119380000D03*
%TD*%
%TO.P,SW6,1,1*%
%TO.N,Net-(SW6-Pad1)*%
X154940000Y-97790000D03*
%TO.P,SW6,2,2*%
%TO.N,/Column2*%
X148590000Y-100330000D03*
%TD*%
%TO.P,SW5,1,1*%
%TO.N,Net-(SW5-Pad1)*%
X135890000Y-97790000D03*
%TO.P,SW5,2,2*%
%TO.N,/Column2*%
X129540000Y-100330000D03*
%TD*%
%TO.P,SW4,1,1*%
%TO.N,Net-(SW4-Pad1)*%
X154940000Y-78740000D03*
%TO.P,SW4,2,2*%
%TO.N,/Column1*%
X148590000Y-81280000D03*
%TD*%
%TO.P,SW3,1,1*%
%TO.N,Net-(SW3-Pad1)*%
X135890000Y-78740000D03*
%TO.P,SW3,2,2*%
%TO.N,/Column1*%
X129540000Y-81280000D03*
%TD*%
%TO.P,SW2,1,1*%
%TO.N,Net-(SW2-Pad1)*%
X154940000Y-59690000D03*
%TO.P,SW2,2,2*%
%TO.N,/Column1*%
X148590000Y-62230000D03*
%TD*%
%TO.P,SW1,1,1*%
%TO.N,Net-(SW1-Pad1)*%
X135890000Y-59690000D03*
%TO.P,SW1,2,2*%
%TO.N,/Column1*%
X129540000Y-62230000D03*
%TD*%
D15*
%TO.P,Screen1,4,SDA*%
%TO.N,/SDA*%
X130620000Y-52510000D03*
%TO.P,Screen1,3,SCL*%
%TO.N,/SCL*%
X133160000Y-52510000D03*
%TO.P,Screen1,1,GND*%
%TO.N,/GND*%
X138240000Y-52510000D03*
%TO.P,Screen1,2,VCC*%
%TO.N,/3.3V*%
X135700000Y-52510000D03*
%TD*%
D16*
%TO.P,Knob1,A,A*%
%TO.N,/RotaryA*%
X159980000Y-36830000D03*
D17*
%TO.P,Knob1,B,B*%
%TO.N,/RotaryB*%
X154980000Y-36830000D03*
%TO.P,Knob1,C,C*%
%TO.N,/GND*%
X157480000Y-36830000D03*
D18*
%TO.P,Knob1,MP*%
%TO.N,N/C*%
X151880000Y-44330000D03*
X163080000Y-44330000D03*
D17*
%TO.P,Knob1,S1,S1*%
%TO.N,/RotaryButton*%
X154980000Y-51330000D03*
%TO.P,Knob1,S2,S2*%
%TO.N,/GND*%
X159980000Y-51330000D03*
%TD*%
D12*
%TO.P,BT1,1,+*%
%TO.N,Net-(PoweSwitch1-Pad2)*%
X146965000Y-31805000D03*
D19*
%TO.P,BT1,2,-*%
%TO.N,Net-(BT1-Pad2)*%
X150215000Y-29155000D03*
%TD*%
D20*
%TO.N,Net-(PoweSwitch1-Pad1)*%
X129470100Y-36738400D03*
%TO.N,/SCL*%
X136186000Y-32065600D03*
%TO.N,/SDA*%
X131341000Y-32066900D03*
%TD*%
D21*
%TO.N,Net-(PoweSwitch1-Pad1)*%
X129470100Y-59129900D02*
X120530000Y-68070000D01*
X129470100Y-36738400D02*
X129470100Y-59129900D01*
%TO.N,Net-(PoweSwitch1-Pad2)*%
X122700600Y-68899400D02*
X120530000Y-71070000D01*
X122700600Y-66799600D02*
X122700600Y-68899400D01*
X134430000Y-55070200D02*
X122700600Y-66799600D01*
X134430000Y-45465300D02*
X134430000Y-55070200D01*
X146965000Y-32930300D02*
X134430000Y-45465300D01*
X146965000Y-31805000D02*
X146965000Y-32930300D01*
%TO.N,/Row1*%
X141114700Y-103159400D02*
X142240000Y-104284700D01*
X141114700Y-67020600D02*
X141114700Y-103159400D01*
X142240000Y-65895300D02*
X141114700Y-67020600D01*
X142240000Y-64770000D02*
X142240000Y-65895300D01*
X142240000Y-105410000D02*
X142240000Y-104284700D01*
%TO.N,/Row4*%
X160164700Y-122209400D02*
X161290000Y-123334700D01*
X160164700Y-88610600D02*
X160164700Y-122209400D01*
X161290000Y-87485300D02*
X160164700Y-88610600D01*
X161290000Y-86360000D02*
X161290000Y-87485300D01*
X161290000Y-124460000D02*
X161290000Y-123334700D01*
%TO.N,/Row3*%
X143365300Y-122209400D02*
X142240000Y-123334700D01*
X143365300Y-88610600D02*
X143365300Y-122209400D01*
X142240000Y-87485300D02*
X143365300Y-88610600D01*
X142240000Y-86360000D02*
X142240000Y-87485300D01*
X142240000Y-124460000D02*
X142240000Y-123334700D01*
%TO.N,/Row2*%
X162415300Y-103159400D02*
X161290000Y-104284700D01*
X162415300Y-69560600D02*
X162415300Y-103159400D01*
X161290000Y-68435300D02*
X162415300Y-69560600D01*
X161290000Y-67310000D02*
X161290000Y-68435300D01*
X161290000Y-105410000D02*
X161290000Y-104284700D01*
%TO.N,/Column2*%
X148590000Y-119380000D02*
X148590000Y-100330000D01*
%TO.N,/Column1*%
X148590000Y-81280000D02*
X148590000Y-62230000D01*
X129540000Y-62230000D02*
X148590000Y-62230000D01*
%TO.N,/SCL*%
X133160000Y-35091600D02*
X136186000Y-32065600D01*
X133160000Y-52510000D02*
X133160000Y-35091600D01*
%TO.N,/SDA*%
X130620000Y-52510000D02*
X130620000Y-51184700D01*
X131341000Y-50463700D02*
X131341000Y-32066900D01*
X130620000Y-51184700D02*
X131341000Y-50463700D01*
%TO.N,/GND*%
X143045300Y-48830000D02*
X139365300Y-52510000D01*
X157480000Y-48830000D02*
X143045300Y-48830000D01*
X157480000Y-36830000D02*
X157480000Y-48830000D01*
X157480000Y-48830000D02*
X159980000Y-51330000D01*
X138240000Y-52510000D02*
X139365300Y-52510000D01*
%TD*%
M02*
