M48
; DRILL file {KiCad (6.0.9)} date Sun Apr  9 12:51:08 2023
; FORMAT={-:-/ absolute / inch / decimal}
; #@! TF.CreationDate,2023-04-09T12:51:08-04:00
; #@! TF.GenerationSoftware,Kicad,Pcbnew,(6.0.9)
; #@! TF.FileFunction,NonPlated,1,2,NPTH
FMAT,2
INCH
; #@! TA.AperFunction,NonPlated,NPTH,ComponentDrill
T1C0.0669
; #@! TA.AperFunction,NonPlated,NPTH,ComponentDrill
T2C0.1260
; #@! TA.AperFunction,NonPlated,NPTH,ComponentDrill
T3C0.1575
%
G90
G05
T1
X5.05Y-2.55
X5.05Y-3.3
X5.05Y-4.05
X5.05Y-4.8
X5.45Y-2.55
X5.45Y-3.3
X5.45Y-4.05
X5.45Y-4.8
X5.8Y-2.55
X5.8Y-3.3
X5.8Y-4.05
X5.8Y-4.8
X6.2Y-2.55
X6.2Y-3.3
X6.2Y-4.05
X6.2Y-4.8
T2
X4.85Y-3.3
X4.85Y-5.2
X6.375Y-5.2
X6.4Y-1.2
T3
X5.25Y-2.55
X5.25Y-3.3
X5.25Y-4.05
X5.25Y-4.8
X6.0Y-2.55
X6.0Y-3.3
X6.0Y-4.05
X6.0Y-4.8
T0
M30
