%TF.GenerationSoftware,KiCad,Pcbnew,(6.0.9)*%
%TF.CreationDate,2023-04-09T12:51:12-04:00*%
%TF.ProjectId,MainPad,4d61696e-5061-4642-9e6b-696361645f70,rev?*%
%TF.SameCoordinates,Original*%
%TF.FileFunction,Soldermask,Bot*%
%TF.FilePolarity,Negative*%
%FSLAX46Y46*%
G04 Gerber Fmt 4.6, Leading zero omitted, Abs format (unit mm)*
G04 Created by KiCad (PCBNEW (6.0.9)) date 2023-04-09 12:51:12*
%MOMM*%
%LPD*%
G01*
G04 APERTURE LIST*
G04 Aperture macros list*
%AMRoundRect*
0 Rectangle with rounded corners*
0 $1 Rounding radius*
0 $2 $3 $4 $5 $6 $7 $8 $9 X,Y pos of 4 corners*
0 Add a 4 corners polygon primitive as box body*
4,1,4,$2,$3,$4,$5,$6,$7,$8,$9,$2,$3,0*
0 Add four circle primitives for the rounded corners*
1,1,$1+$1,$2,$3*
1,1,$1+$1,$4,$5*
1,1,$1+$1,$6,$7*
1,1,$1+$1,$8,$9*
0 Add four rect primitives between the rounded corners*
20,1,$1+$1,$2,$3,$4,$5,0*
20,1,$1+$1,$4,$5,$6,$7,0*
20,1,$1+$1,$6,$7,$8,$9,0*
20,1,$1+$1,$8,$9,$2,$3,0*%
G04 Aperture macros list end*
%ADD10O,1.998980X2.748280*%
%ADD11O,2.032000X1.016000*%
%ADD12C,1.143000*%
%ADD13RoundRect,0.375000X-0.375000X0.875000X-0.375000X-0.875000X0.375000X-0.875000X0.375000X0.875000X0*%
%ADD14C,3.200000*%
%ADD15C,1.008000*%
%ADD16O,2.416000X1.208000*%
%ADD17R,1.600000X1.600000*%
%ADD18O,1.600000X1.600000*%
%ADD19C,4.000000*%
%ADD20C,1.700000*%
%ADD21C,2.200000*%
%ADD22O,1.600000X2.000000*%
%ADD23R,2.000000X2.000000*%
%ADD24C,2.000000*%
%ADD25R,2.000000X3.200000*%
%ADD26C,1.600000*%
G04 APERTURE END LIST*
D10*
%TO.C,U1*%
X122540480Y-30318720D03*
X125080480Y-30318720D03*
X127620480Y-30318720D03*
X130160480Y-30318720D03*
X132700480Y-30318720D03*
X135240480Y-30318720D03*
X137780480Y-30318720D03*
X137780480Y-46483280D03*
X135240480Y-46483280D03*
X132700480Y-46483280D03*
X130160480Y-46483280D03*
X127620480Y-46483280D03*
X125080480Y-46483280D03*
X122540480Y-46483280D03*
D11*
X138858300Y-37185600D03*
X138858300Y-39735600D03*
D12*
X121854113Y-37184403D03*
X121854113Y-39724403D03*
X124394113Y-37184403D03*
X124394113Y-39724403D03*
D13*
X127958300Y-33930600D03*
X129863300Y-33930600D03*
%TD*%
D14*
%TO.C,Hole1*%
X123190000Y-83820000D03*
%TD*%
%TO.C,Hole2*%
X123190000Y-132080000D03*
%TD*%
%TO.C,Hole3*%
X161925000Y-132080000D03*
%TD*%
%TO.C,Hole4*%
X162560000Y-30480000D03*
%TD*%
D15*
%TO.C,PoweSwitch1*%
X120530000Y-68070000D03*
X120530000Y-71070000D03*
X120530000Y-74070000D03*
D16*
X120530000Y-64770000D03*
X120530000Y-77270000D03*
%TD*%
D17*
%TO.C,U9*%
X161290000Y-116840000D03*
D18*
X161290000Y-124460000D03*
%TD*%
D17*
%TO.C,U8*%
X142240000Y-116840000D03*
D18*
X142240000Y-124460000D03*
%TD*%
D17*
%TO.C,U7*%
X161290000Y-97790000D03*
D18*
X161290000Y-105410000D03*
%TD*%
D17*
%TO.C,U6*%
X142240000Y-97790000D03*
D18*
X142240000Y-105410000D03*
%TD*%
D17*
%TO.C,U5*%
X161290000Y-78740000D03*
D18*
X161290000Y-86360000D03*
%TD*%
D17*
%TO.C,U4*%
X142240000Y-78740000D03*
D18*
X142240000Y-86360000D03*
%TD*%
D17*
%TO.C,U3*%
X161290000Y-59690000D03*
D18*
X161290000Y-67310000D03*
%TD*%
D17*
%TO.C,U2*%
X142240000Y-57150000D03*
D18*
X142240000Y-64770000D03*
%TD*%
D19*
%TO.C,SW8*%
X152400000Y-121920000D03*
D20*
X147320000Y-121920000D03*
X157480000Y-121920000D03*
D21*
X154940000Y-116840000D03*
X148590000Y-119380000D03*
%TD*%
D19*
%TO.C,SW7*%
X133350000Y-121920000D03*
D20*
X128270000Y-121920000D03*
X138430000Y-121920000D03*
D21*
X135890000Y-116840000D03*
X129540000Y-119380000D03*
%TD*%
D19*
%TO.C,SW6*%
X152400000Y-102870000D03*
D20*
X147320000Y-102870000D03*
X157480000Y-102870000D03*
D21*
X154940000Y-97790000D03*
X148590000Y-100330000D03*
%TD*%
D19*
%TO.C,SW5*%
X133350000Y-102870000D03*
D20*
X128270000Y-102870000D03*
X138430000Y-102870000D03*
D21*
X135890000Y-97790000D03*
X129540000Y-100330000D03*
%TD*%
D19*
%TO.C,SW4*%
X152400000Y-83820000D03*
D20*
X147320000Y-83820000D03*
X157480000Y-83820000D03*
D21*
X154940000Y-78740000D03*
X148590000Y-81280000D03*
%TD*%
D19*
%TO.C,SW3*%
X133350000Y-83820000D03*
D20*
X128270000Y-83820000D03*
X138430000Y-83820000D03*
D21*
X135890000Y-78740000D03*
X129540000Y-81280000D03*
%TD*%
D19*
%TO.C,SW2*%
X152400000Y-64770000D03*
D20*
X147320000Y-64770000D03*
X157480000Y-64770000D03*
D21*
X154940000Y-59690000D03*
X148590000Y-62230000D03*
%TD*%
D19*
%TO.C,SW1*%
X133350000Y-64770000D03*
D20*
X128270000Y-64770000D03*
X138430000Y-64770000D03*
D21*
X135890000Y-59690000D03*
X129540000Y-62230000D03*
%TD*%
D22*
%TO.C,Screen1*%
X130620000Y-52510000D03*
X133160000Y-52510000D03*
X138240000Y-52510000D03*
X135700000Y-52510000D03*
%TD*%
D23*
%TO.C,Knob1*%
X159980000Y-36830000D03*
D24*
X154980000Y-36830000D03*
X157480000Y-36830000D03*
D25*
X151880000Y-44330000D03*
X163080000Y-44330000D03*
D24*
X154980000Y-51330000D03*
X159980000Y-51330000D03*
%TD*%
D17*
%TO.C,BT1*%
X146965000Y-31805000D03*
D26*
X150215000Y-29155000D03*
%TD*%
M02*
