M48
; DRILL file {KiCad (6.0.9)} date Sun Apr  9 12:51:08 2023
; FORMAT={-:-/ absolute / inch / decimal}
; #@! TF.CreationDate,2023-04-09T12:51:08-04:00
; #@! TF.GenerationSoftware,Kicad,Pcbnew,(6.0.9)
; #@! TF.FileFunction,Plated,1,2,PTH
FMAT,2
INCH
; #@! TA.AperFunction,Plated,PTH,ViaDrill
T1C0.0157
; #@! TA.AperFunction,Plated,PTH,ComponentDrill
T2C0.0197
; #@! TA.AperFunction,Plated,PTH,ComponentDrill
T3C0.0276
; #@! TA.AperFunction,Plated,PTH,ComponentDrill
T4C0.0315
; #@! TA.AperFunction,Plated,PTH,ComponentDrill
T5C0.0394
; #@! TA.AperFunction,Plated,PTH,ComponentDrill
T6C0.0429
; #@! TA.AperFunction,Plated,PTH,ComponentDrill
T7C0.0591
%
G90
G05
T1
X5.0972Y-1.4464
X5.1709Y-1.2625
X5.3617Y-1.2624
T2
X4.7453Y-2.6799
X4.7453Y-2.798
X4.7453Y-2.9161
T3
X4.7453Y-2.55
X4.7453Y-3.0421
T4
X5.6Y-2.25
X5.6Y-2.55
X5.6Y-3.1
X5.6Y-3.4
X5.6Y-3.85
X5.6Y-4.15
X5.6Y-4.6
X5.6Y-4.9
X6.35Y-2.35
X6.35Y-2.65
X6.35Y-3.1
X6.35Y-3.4
X6.35Y-3.85
X6.35Y-4.15
X6.35Y-4.6
X6.35Y-4.9
T5
X5.1425Y-2.0673
X5.2425Y-2.0673
X5.3425Y-2.0673
X5.4425Y-2.0673
X6.1016Y-1.45
X6.1016Y-2.0209
X6.2Y-1.45
X6.2984Y-1.45
X6.2984Y-2.0209
T6
X5.786Y-1.2522
X5.914Y-1.1478
T7
X5.1Y-2.45
X5.1Y-3.2
X5.1Y-3.95
X5.1Y-4.7
X5.35Y-2.35
X5.35Y-3.1
X5.35Y-3.85
X5.35Y-4.6
X5.85Y-2.45
X5.85Y-3.2
X5.85Y-3.95
X5.85Y-4.7
X6.1Y-2.35
X6.1Y-3.1
X6.1Y-3.85
X6.1Y-4.6
T7
G00X5.9795Y-1.7197
M15
G01X5.9795Y-1.7709
M16
G05
G00X6.4205Y-1.7197
M15
G01X6.4205Y-1.7709
M16
G05
T0
M30
